<?xml version="1.0" encoding="utf-8"?>
<!-- Generator: Adobe Illustrator 25.2.0, SVG Export Plug-In . SVG Version: 6.00 Build 0)  -->
<svg version="1.1" id="Calque_1" xmlns="http://www.w3.org/2000/svg" xmlns:xlink="http://www.w3.org/1999/xlink" x="0px" y="0px"
	 viewBox="0 0 81 34" style="enable-background:new 0 0 81 34;" xml:space="preserve">
<style type="text/css">
	.st0{fill-rule:evenodd;clip-rule:evenodd;fill:#38C835;}
</style>
<path class="st0" d="M36.8,5.6c1.6,0,2.7-1.1,2.7-2.8c0-1.7-1-2.8-2.7-2.8s-2.7,1.1-2.7,2.8C34.1,4.5,35.1,5.6,36.8,5.6z M36.8,4.4
	c-0.8,0-1.1-0.7-1.1-1.6s0.4-1.6,1.1-1.6c0.7,0,1.1,0.7,1.1,1.6S37.5,4.4,36.8,4.4z M41.9,2.4c0-0.7,0.4-1.1,1-1.1
	c0.6,0,1,0.4,1,1.1v3.2h1.5V2c0-1.3-0.7-2-1.9-2c-0.8,0-1.4,0.4-1.6,1h-0.1v-1h-1.4v5.4h1.5V2.4z M0,1.5h0.6h29.2v1.2H1.2v26.7h24.8
	v1.2H0.6H0V30V2.1V1.5z M80.2,1.5h-0.6H50.5v1.2H79v26.7H54.2v1.2h25.4h0.6V30V2.1V1.5z M17,24.7h-3.4V8.4h10.8v2.8H17v3.9h6.6v2.8
	H17V24.7z M30,24.7h-3.4V12.5H30V24.7z M30.1,9.2c0,0.9-0.8,1.7-1.8,1.7c-1,0-1.8-0.8-1.8-1.7c0-0.9,0.8-1.7,1.8-1.7
	C29.3,7.5,30.1,8.3,30.1,9.2z M32.7,8.4h3.4v16.2h-3.4V8.4z M42.2,24.7h-3.4V12.5H42v2.1h0.1c0.5-1.4,1.8-2.3,3.4-2.3
	c1.7,0,2.9,0.9,3.3,2.3H49c0.5-1.4,1.9-2.3,3.7-2.3c2.3,0,3.8,1.5,3.8,4.1v8.2h-3.4v-7.5c0-1.4-0.8-2-1.9-2c-1.2,0-2,0.9-2,2.1v7.4
	H46v-7.6c0-1.2-0.7-2-1.9-2c-1.1,0-2,0.9-2,2.2V24.7z M64.1,12.3c3.1,0,4.9,1.4,5.2,3.6l-3.1,0.2c-0.2-0.8-0.9-1.4-2-1.4
	c-1,0-1.9,0.5-1.9,1.2c0,0.6,0.4,1,1.5,1.2l2.2,0.4c2.4,0.5,3.5,1.5,3.5,3.3c0,2.4-2.3,4-5.4,4c-3.2,0-5.2-1.4-5.5-3.8l3.3-0.2
	c0.2,1,1,1.5,2.2,1.5c1.2,0,2-0.5,2-1.2c0-0.6-0.5-1-1.6-1.2l-2.1-0.4c-2.4-0.5-3.5-1.7-3.5-3.5C58.9,13.8,61,12.3,64.1,12.3z
	 M35.3,32l-0.5,1.6h-1.6l2.5-7.2h2l2.5,7.2h-1.6L37.9,32H35.3z M36.6,28l-0.9,2.7h1.8L36.6,28L36.6,28z M42.4,33.6h-1.5v-5.4h1.5
	V33.6z M42.5,26.7c0,0.4-0.4,0.8-0.8,0.8c-0.4,0-0.8-0.3-0.8-0.8c0-0.4,0.4-0.8,0.8-0.8C42.1,26,42.5,26.3,42.5,26.7z M45.1,33.6
	h-1.5v-5.4h1.5v0.9h0.1c0.2-0.7,0.7-1,1.3-1c0.2,0,0.3,0,0.5,0.1v1.3c-0.1,0-0.4-0.1-0.6-0.1c-0.7,0-1.1,0.5-1.1,1.1V33.6z"/>
</svg>
